<svg width="20" height="20" viewBox="0 0 20 20" fill="none" xmlns="http://www.w3.org/2000/svg">
<path fill-rule="evenodd" clip-rule="evenodd" d="M4.16634 16.6667H15.833C16.054 16.6667 16.266 16.7545 16.4223 16.9108C16.5785 17.067 16.6663 17.279 16.6663 17.5C16.6663 17.721 16.5785 17.933 16.4223 18.0893C16.266 18.2456 16.054 18.3334 15.833 18.3334H4.16634C3.94533 18.3334 3.73337 18.2456 3.57709 18.0893C3.42081 17.933 3.33301 17.721 3.33301 17.5C3.33301 17.279 3.42081 17.067 3.57709 16.9108C3.73337 16.7545 3.94533 16.6667 4.16634 16.6667ZM3.33301 12.5L11.6663 4.16669L14.1663 6.66669L5.83301 15H3.33301V12.5ZM12.4997 3.33335L14.1663 1.66669L16.6663 4.16669L14.9988 5.83419L12.4997 3.33335Z" fill="white"/>
</svg>
