<svg width="262" height="41" viewBox="0 0 262 41" fill="none" xmlns="http://www.w3.org/2000/svg">
<g clip-path="url(#clip0_1681_6)">
<path fill-rule="evenodd" clip-rule="evenodd" d="M20.2182 0H33.5528C34.2209 0.000142686 34.8615 0.26566 35.3339 0.738149L44.6729 10.0771C45.1454 10.5495 45.4109 11.1902 45.411 11.8583V35.2699C45.411 36.6062 44.8802 37.8878 43.9353 38.8327C42.9903 39.7776 41.7088 40.3085 40.3725 40.3085H20.2182C18.8819 40.3085 17.6003 39.7776 16.6554 38.8327C15.7105 37.8878 15.1796 36.6062 15.1796 35.2699V34.4646C15.994 34.3247 16.6136 33.6152 16.6136 32.7609C16.6136 31.9066 15.994 31.1971 15.1796 31.0572V31.0323H14.9058C14.8989 31.0322 14.8919 31.0322 14.8849 31.0322H6.84227C4.78396 31.0156 3.1205 29.342 3.1205 27.2797C3.1205 25.2073 4.80059 23.5272 6.87307 23.5272H15.1796L18.7218 23.5271C19.3738 23.5271 19.9024 22.9985 19.9024 22.3465C19.9024 21.6945 19.3738 21.1659 18.7218 21.1659H10.1589C8.50302 21.1419 7.16806 19.7921 7.16806 18.1304C7.16806 16.4538 8.52723 15.0946 10.2038 15.0946H15.1796V15.0177C16.0079 14.7802 16.614 14.0172 16.614 13.1126C16.614 12.208 16.0079 11.445 15.1796 11.2074V11.1309H2.95146C1.32141 11.1309 0 9.80947 0 8.17942C0 6.54937 1.32141 5.22796 2.95146 5.22796H15.1796L17.9209 5.22795C18.4099 5.22795 18.8063 4.83152 18.8063 4.34251C18.8063 3.8535 18.4099 3.45707 17.9209 3.45707H15.4343C15.6789 2.71723 16.0941 2.03709 16.6554 1.47576C17.6003 0.530847 18.8819 0 20.2182 0ZM34.0742 3.77892V8.81748C34.0742 9.48564 34.3397 10.1264 34.8121 10.5989C35.2846 11.0713 35.9254 11.3368 36.5935 11.3368H41.6321L34.0742 3.77892ZM20.6339 34.4335C20.8606 34.887 21.2133 35.2976 21.7373 35.4891C22.2588 35.6781 22.7753 35.5899 23.1985 35.4135C23.9996 35.086 24.7983 34.3151 25.5314 33.4334C26.3703 32.4231 27.252 31.098 28.1036 29.6293C29.7475 29.142 31.4309 28.7998 33.1346 28.6064C33.8903 29.5713 34.6713 30.4027 35.4271 30.9998C36.1325 31.554 36.9462 32.015 37.7801 32.0503C38.2343 32.0728 38.684 31.9511 39.0649 31.7026C39.4554 31.4482 39.7452 31.0804 39.9568 30.6546C40.1835 30.1986 40.3221 29.7225 40.3044 29.2363C40.2885 28.7569 40.1109 28.297 39.8006 27.9313C39.2312 27.2511 38.2991 26.9236 37.3821 26.7598C36.2697 26.5875 35.141 26.5452 34.0188 26.6338C33.0712 25.2942 31.2981 26.1877 30.603 24.7013C31.2329 23.0386 32.6509 19.1516 32.86 17.8667C32.9506 17.3175 32.9985 16.7935 32.9809 16.3199C32.9777 15.8498 32.8684 15.3864 32.6609 14.9645C32.5414 14.7317 32.3716 14.5284 32.1637 14.3693C31.9559 14.2103 31.7152 14.0995 31.4592 14.045C30.9503 13.9367 30.4263 14.045 29.9451 14.239C28.9954 14.6169 28.494 15.423 28.3051 16.3123C28.1212 17.1689 28.2043 18.1665 28.421 19.1742C28.6427 20.1971 29.0206 21.3106 29.5043 22.4367C28.7306 24.3609 27.837 26.2348 26.8288 28.0472C25.5305 28.4557 24.279 29.0003 23.0952 29.6721C22.1631 30.2263 21.3342 30.8813 20.8354 31.6548C20.3064 32.476 20.1426 33.4535 20.6339 34.4335ZM24.0553 31.2993C24.408 31.0927 24.7935 30.8911 25.2117 30.6997C24.8584 31.2264 24.4801 31.7359 24.078 32.2264C23.3726 33.0754 22.8234 33.5263 22.4783 33.6674C22.4496 33.6795 22.4202 33.6896 22.3901 33.6976C22.365 33.6627 22.343 33.6256 22.3246 33.5868C22.1835 33.3097 22.1886 33.0426 22.4254 32.6798C22.6924 32.2642 23.229 31.788 24.0553 31.2993ZM30.2402 27.15C29.9404 27.213 29.6431 27.276 29.3433 27.3465C29.7874 26.4765 30.2074 25.5944 30.603 24.7013C31.0012 25.4392 31.4298 26.1604 31.8878 26.8628C31.3411 26.9434 30.7894 27.0392 30.2402 27.15ZM36.6014 29.5156C36.2101 29.2 35.8437 28.8547 35.5055 28.4827C36.0799 28.4953 36.5988 28.5381 37.0473 28.6188C37.8459 28.7624 38.2213 28.9891 38.3523 29.1453C38.3936 29.1889 38.4169 29.2465 38.4178 29.3065C38.4089 29.4842 38.3571 29.6571 38.2666 29.8104C38.2158 29.9331 38.1342 30.0407 38.0298 30.1228C37.9778 30.1547 37.9165 30.168 37.856 30.1606C37.6292 30.153 37.206 29.9943 36.6014 29.5156ZM30.996 17.5591C30.8952 18.1738 30.7239 18.8792 30.4921 19.6476C30.4067 19.3599 30.3319 19.0691 30.2679 18.7759C30.0764 17.8866 30.0487 17.1888 30.152 16.7051C30.2477 16.2592 30.4291 16.0803 30.6458 15.9921C30.762 15.9409 30.8851 15.907 31.0111 15.8914C31.0438 15.9669 31.0816 16.1231 31.0917 16.3902C31.1043 16.6975 31.0741 17.088 30.996 17.5616V17.5591Z" fill="#4CB4FF"/>
<path d="M133.263 34.2566C131.604 34.2566 130.104 33.9901 128.761 33.457C127.418 32.9239 126.263 32.1736 125.296 31.2061C124.328 30.2387 123.588 29.1034 123.075 27.8003C122.561 26.4774 122.305 25.046 122.305 23.5059C122.305 21.9659 122.571 20.5542 123.104 19.2708C123.657 17.9677 124.437 16.8324 125.444 15.8649C126.451 14.8975 127.636 14.1472 128.998 13.6141C130.38 13.081 131.881 12.8145 133.5 12.8145C134.645 12.8145 135.721 12.9625 136.728 13.2587C137.754 13.5549 138.682 13.9596 139.512 14.473C140.341 14.9863 141.042 15.5786 141.614 16.2499L138.564 19.4781C138.07 19.0042 137.557 18.6094 137.024 18.2935C136.511 17.9776 135.958 17.7308 135.365 17.5531C134.773 17.3556 134.141 17.2569 133.47 17.2569C132.601 17.2569 131.802 17.4148 131.071 17.7308C130.36 18.0467 129.728 18.4909 129.176 19.0635C128.643 19.6163 128.228 20.2777 127.932 21.0478C127.636 21.798 127.488 22.6174 127.488 23.5059C127.488 24.3944 127.645 25.2237 127.961 25.9937C128.277 26.7637 128.712 27.435 129.265 28.0076C129.817 28.5604 130.469 29.0047 131.219 29.3403C131.989 29.6562 132.809 29.8142 133.677 29.8142C134.289 29.8142 134.862 29.7155 135.395 29.518C135.948 29.3206 136.422 29.054 136.817 28.7184C137.212 28.3827 137.527 27.9878 137.764 27.5337C138.001 27.0599 138.12 26.5564 138.12 26.0233V25.2533L138.771 26.2602H133.055V22.3213H142.799C142.839 22.5385 142.868 22.8346 142.888 23.2098C142.908 23.5849 142.918 23.9502 142.918 24.3056C142.937 24.661 142.947 24.9275 142.947 25.1052C142.947 26.4478 142.7 27.6818 142.207 28.8072C141.733 29.9129 141.062 30.8705 140.193 31.68C139.324 32.4895 138.297 33.1213 137.113 33.5754C135.928 34.0296 134.645 34.2566 133.263 34.2566Z" fill="black"/>
<path d="M152.314 34.2566C150.576 34.2566 149.066 33.9111 147.782 33.22C146.499 32.5093 145.502 31.5517 144.791 30.3473C144.08 29.1231 143.725 27.7312 143.725 26.1714C143.725 24.967 143.922 23.8613 144.317 22.8544C144.712 21.8474 145.265 20.9787 145.976 20.2481C146.687 19.4979 147.526 18.9253 148.493 18.5304C149.48 18.1158 150.556 17.9084 151.721 17.9084C152.827 17.9084 153.834 18.1059 154.742 18.5008C155.67 18.8957 156.47 19.4485 157.141 20.1593C157.812 20.8701 158.326 21.7092 158.681 22.6767C159.037 23.6441 159.194 24.7004 159.155 25.8456L159.125 27.1191H146.598L145.917 24.4536H155.275L154.772 25.0163V24.424C154.732 23.9304 154.574 23.496 154.298 23.1209C154.041 22.726 153.696 22.42 153.261 22.2028C152.827 21.9856 152.333 21.877 151.781 21.877C151.011 21.877 150.349 22.035 149.796 22.3509C149.263 22.647 148.858 23.0913 148.582 23.6836C148.306 24.2562 148.167 24.967 148.167 25.816C148.167 26.6847 148.345 27.4449 148.7 28.0964C149.076 28.7282 149.609 29.2219 150.3 29.5772C151.011 29.9326 151.85 30.1103 152.817 30.1103C153.488 30.1103 154.081 30.0116 154.594 29.8142C155.127 29.6167 155.7 29.2811 156.312 28.8072L158.533 31.9466C157.921 32.4796 157.269 32.914 156.578 33.2497C155.887 33.5853 155.177 33.8321 154.446 33.9901C153.735 34.1678 153.024 34.2566 152.314 34.2566Z" fill="black"/>
<path d="M160.691 33.9605V18.2342H165.193L165.341 21.4328L164.393 21.7882C164.61 21.0774 164.995 20.4357 165.548 19.8631C166.121 19.2708 166.802 18.7969 167.592 18.4415C168.382 18.0861 169.211 17.9084 170.08 17.9084C171.264 17.9084 172.261 18.1552 173.071 18.6489C173.88 19.1227 174.492 19.8434 174.907 20.8108C175.322 21.7586 175.529 22.9235 175.529 24.3056V33.9605H170.761V24.6906C170.761 24.0588 170.672 23.5355 170.494 23.1209C170.316 22.7063 170.04 22.4002 169.665 22.2028C169.31 21.9856 168.865 21.8869 168.332 21.9066C167.918 21.9066 167.533 21.9757 167.177 22.114C166.822 22.2324 166.516 22.42 166.259 22.6767C166.002 22.9136 165.795 23.19 165.637 23.5059C165.499 23.8218 165.43 24.1673 165.43 24.5425V33.9605H163.09C162.537 33.9605 162.063 33.9605 161.669 33.9605C161.274 33.9605 160.948 33.9605 160.691 33.9605Z" fill="black"/>
<path d="M185.503 34.2566C183.765 34.2566 182.255 33.9111 180.971 33.22C179.688 32.5093 178.691 31.5517 177.98 30.3473C177.269 29.1231 176.914 27.7312 176.914 26.1714C176.914 24.967 177.111 23.8613 177.506 22.8544C177.901 21.8474 178.454 20.9787 179.165 20.2481C179.876 19.4979 180.715 18.9253 181.682 18.5304C182.669 18.1158 183.745 17.9084 184.91 17.9084C186.016 17.9084 187.023 18.1059 187.931 18.5008C188.859 18.8957 189.659 19.4485 190.33 20.1593C191.001 20.8701 191.515 21.7092 191.87 22.6767C192.226 23.6441 192.384 24.7004 192.344 25.8456L192.314 27.1191H179.787L179.106 24.4536H188.464L187.961 25.0163V24.424C187.921 23.9304 187.763 23.496 187.487 23.1209C187.23 22.726 186.885 22.42 186.45 22.2028C186.016 21.9856 185.522 21.877 184.97 21.877C184.2 21.877 183.538 22.035 182.985 22.3509C182.452 22.647 182.047 23.0913 181.771 23.6836C181.495 24.2562 181.356 24.967 181.356 25.816C181.356 26.6847 181.534 27.4449 181.889 28.0964C182.265 28.7282 182.798 29.2219 183.489 29.5772C184.2 29.9326 185.039 30.1103 186.006 30.1103C186.677 30.1103 187.27 30.0116 187.783 29.8142C188.316 29.6167 188.889 29.2811 189.501 28.8072L191.722 31.9466C191.11 32.4796 190.458 32.914 189.767 33.2497C189.076 33.5853 188.366 33.8321 187.635 33.9901C186.924 34.1678 186.213 34.2566 185.503 34.2566Z" fill="black"/>
<path d="M193.883 33.9605V18.2342H198.385L198.592 23.3578L197.704 22.3805C197.941 21.5315 198.326 20.7714 198.859 20.1C199.412 19.4287 200.053 18.8957 200.784 18.5008C201.514 18.1059 202.294 17.9084 203.123 17.9084C203.479 17.9084 203.805 17.9381 204.101 17.9973C204.417 18.0565 204.703 18.1256 204.96 18.2046L203.657 23.4467C203.439 23.3085 203.143 23.1999 202.768 23.1209C202.413 23.0222 202.038 22.9728 201.643 22.9728C201.208 22.9728 200.804 23.0518 200.428 23.2098C200.053 23.348 199.737 23.5553 199.481 23.8317C199.224 24.1081 199.017 24.4339 198.859 24.809C198.721 25.1842 198.651 25.6087 198.651 26.0825V33.9605H193.883Z" fill="black"/>
<path d="M211.021 34.227C209.698 34.227 208.513 33.8815 207.467 33.1904C206.44 32.4796 205.621 31.5122 205.009 30.288C204.397 29.0442 204.09 27.6423 204.09 26.0825C204.09 24.4833 204.397 23.0715 205.009 21.8474C205.621 20.6233 206.46 19.6657 207.526 18.9746C208.592 18.2638 209.806 17.9084 211.169 17.9084C211.919 17.9084 212.6 18.017 213.212 18.2342C213.844 18.4514 214.397 18.7574 214.871 19.1523C215.345 19.5275 215.749 19.9717 216.085 20.4851C216.421 20.9787 216.668 21.5118 216.825 22.0843L215.848 21.9659V18.2342H220.557V33.9605H215.759V30.1696L216.825 30.14C216.668 30.6928 216.411 31.216 216.055 31.7096C215.7 32.2032 215.266 32.6376 214.752 33.0127C214.239 33.3879 213.666 33.684 213.035 33.9012C212.403 34.1184 211.731 34.227 211.021 34.227ZM212.324 30.2288C213.054 30.2288 213.686 30.061 214.219 29.7253C214.752 29.3897 215.167 28.9158 215.463 28.3038C215.759 27.6719 215.907 26.9315 215.907 26.0825C215.907 25.2335 215.759 24.503 215.463 23.8909C215.167 23.2591 214.752 22.7754 214.219 22.4397C213.686 22.0843 213.054 21.9066 212.324 21.9066C211.613 21.9066 210.991 22.0843 210.458 22.4397C209.945 22.7754 209.54 23.2591 209.244 23.8909C208.948 24.503 208.799 25.2335 208.799 26.0825C208.799 26.9315 208.948 27.6719 209.244 28.3038C209.54 28.9158 209.945 29.3897 210.458 29.7253C210.991 30.061 211.613 30.2288 212.324 30.2288Z" fill="black"/>
<path d="M224.559 33.9605V14.2656H229.297V33.9605H224.559ZM221.775 22.3805V18.2342H232.348V22.3805H221.775Z" fill="black"/>
<path d="M240.835 34.2566C239.197 34.2566 237.736 33.9012 236.452 33.1904C235.189 32.4796 234.182 31.5122 233.431 30.288C232.701 29.0639 232.336 27.6621 232.336 26.0825C232.336 24.503 232.701 23.1012 233.431 21.877C234.182 20.6529 235.189 19.6854 236.452 18.9746C237.736 18.2638 239.197 17.9084 240.835 17.9084C242.474 17.9084 243.925 18.2638 245.189 18.9746C246.472 19.6854 247.479 20.6529 248.21 21.877C248.94 23.1012 249.306 24.503 249.306 26.0825C249.306 27.6621 248.94 29.0639 248.21 30.288C247.479 31.5122 246.472 32.4796 245.189 33.1904C243.925 33.9012 242.474 34.2566 240.835 34.2566ZM240.835 30.1696C241.546 30.1696 242.178 29.9919 242.731 29.6365C243.284 29.2811 243.718 28.7974 244.034 28.1853C244.35 27.5732 244.498 26.8723 244.478 26.0825C244.498 25.2928 244.35 24.5918 244.034 23.9798C243.718 23.348 243.284 22.8544 242.731 22.499C242.178 22.1436 241.546 21.9659 240.835 21.9659C240.125 21.9659 239.483 22.1436 238.91 22.499C238.357 22.8544 237.923 23.348 237.607 23.9798C237.291 24.5918 237.143 25.2928 237.163 26.0825C237.143 26.8723 237.291 27.5732 237.607 28.1853C237.923 28.7974 238.357 29.2811 238.91 29.6365C239.483 29.9919 240.125 30.1696 240.835 30.1696Z" fill="black"/>
<path d="M250.924 33.9605V18.2342H255.426L255.633 23.3578L254.745 22.3805C254.982 21.5315 255.367 20.7714 255.9 20.1C256.453 19.4287 257.094 18.8957 257.825 18.5008C258.556 18.1059 259.335 17.9084 260.165 17.9084C260.52 17.9084 260.846 17.9381 261.142 17.9973C261.458 18.0565 261.744 18.1256 262.001 18.2046L260.698 23.4467C260.481 23.3085 260.184 23.1999 259.809 23.1209C259.454 23.0222 259.079 22.9728 258.684 22.9728C258.249 22.9728 257.845 23.0518 257.47 23.2098C257.094 23.348 256.779 23.5553 256.522 23.8317C256.265 24.1081 256.058 24.4339 255.9 24.809C255.762 25.1842 255.693 25.6087 255.693 26.0825V33.9605H250.924Z" fill="black"/>
<path d="M53.7734 33.3674V12.3398H60.911C63.142 12.3398 64.998 12.8137 66.4788 13.7614C67.9794 14.6894 69.1048 15.953 69.8551 17.5523C70.6053 19.1318 70.9805 20.8891 70.9805 22.824C70.9805 24.9564 70.5658 26.8123 69.7366 28.3918C68.9271 29.9714 67.7622 31.1955 66.2419 32.0643C64.7413 32.933 62.9643 33.3674 60.911 33.3674H53.7734ZM68.9073 22.824C68.9073 21.1457 68.5914 19.6551 67.9596 18.3519C67.3476 17.0488 66.4492 16.032 65.2645 15.3015C64.0799 14.5512 62.6287 14.1761 60.911 14.1761H55.8466V31.5312H60.911C62.6484 31.5312 64.1095 31.1462 65.2942 30.3761C66.4788 29.6061 67.3772 28.5695 67.9892 27.2664C68.6013 25.9436 68.9073 24.4628 68.9073 22.824Z" fill="black"/>
<path d="M79.6234 33.6635C78.5177 33.6635 77.491 33.4562 76.5433 33.0416C75.6153 32.6072 74.8058 32.0248 74.1148 31.2942C73.4435 30.544 72.9202 29.695 72.5451 28.7472C72.17 27.7798 71.9824 26.763 71.9824 25.6968C71.9824 24.5911 72.17 23.5644 72.5451 22.6167C72.9202 21.6492 73.4533 20.8002 74.1444 20.0697C74.8354 19.3194 75.6449 18.737 76.5729 18.3223C77.5206 17.888 78.5473 17.6708 79.653 17.6708C80.7587 17.6708 81.7755 17.888 82.7035 18.3223C83.6315 18.737 84.441 19.3194 85.132 20.0697C85.8231 20.8002 86.3562 21.6492 86.7313 22.6167C87.1064 23.5644 87.294 24.5911 87.294 25.6968C87.294 26.763 87.1064 27.7798 86.7313 28.7472C86.3562 29.695 85.8231 30.544 85.132 31.2942C84.4607 32.0248 83.6512 32.6072 82.7035 33.0416C81.7755 33.4562 80.7488 33.6635 79.6234 33.6635ZM74.0259 25.7264C74.0259 26.8715 74.2727 27.918 74.7663 28.8657C75.2797 29.7937 75.9609 30.5341 76.8098 31.0869C77.6588 31.62 78.5967 31.8866 79.6234 31.8866C80.6501 31.8866 81.5879 31.6101 82.4369 31.0573C83.2859 30.5045 83.9671 29.7542 84.4805 28.8065C84.9938 27.839 85.2505 26.7926 85.2505 25.6672C85.2505 24.522 84.9938 23.4756 84.4805 22.5278C83.9671 21.5801 83.2859 20.8298 82.4369 20.277C81.5879 19.7242 80.6501 19.4477 79.6234 19.4477C78.5967 19.4477 77.6588 19.734 76.8098 20.3066C75.9806 20.8792 75.3093 21.6393 74.7959 22.5871C74.2826 23.515 74.0259 24.5615 74.0259 25.7264Z" fill="black"/>
<path d="M95.8746 33.6635C94.7492 33.6635 93.7126 33.4562 92.7649 33.0416C91.8369 32.6072 91.0175 32.0149 90.3068 31.2646C89.6157 30.5143 89.0727 29.6555 88.6779 28.688C88.3027 27.7205 88.1152 26.6939 88.1152 25.6079C88.1152 24.1469 88.4409 22.8141 89.0925 21.6097C89.744 20.4053 90.6523 19.4477 91.8172 18.737C92.9821 18.0262 94.3247 17.6708 95.845 17.6708C97.2863 17.6708 98.5598 18.0064 99.6655 18.6777C100.772 19.3293 101.591 20.2178 102.124 21.3432L100.169 21.9651C99.7346 21.1754 99.1225 20.5633 98.3328 20.1289C97.5627 19.6748 96.7039 19.4477 95.7561 19.4477C94.7295 19.4477 93.7916 19.7143 92.9426 20.2474C92.0936 20.7805 91.4124 21.511 90.8991 22.439C90.4055 23.367 90.1587 24.4233 90.1587 25.6079C90.1587 26.7728 90.4154 27.8291 90.9287 28.7769C91.442 29.7246 92.1232 30.4847 92.9722 31.0573C93.8212 31.6101 94.7591 31.8866 95.7858 31.8866C96.4571 31.8866 97.0987 31.7681 97.7108 31.5312C98.3426 31.2942 98.8856 30.9783 99.3397 30.5835C99.8136 30.1688 100.13 29.7246 100.288 29.2507L102.272 29.843C101.996 30.5736 101.532 31.235 100.88 31.8273C100.248 32.3999 99.4977 32.854 98.6289 33.1897C97.7799 33.5056 96.8618 33.6635 95.8746 33.6635Z" fill="black"/>
<path d="M103.807 26.9999V17.9373H105.821V26.6445C105.821 28.4017 106.117 29.7147 106.709 30.5835C107.322 31.4522 108.22 31.8866 109.405 31.8866C110.194 31.8866 110.954 31.7187 111.685 31.3831C112.435 31.0277 113.097 30.5341 113.669 29.9023C114.242 29.2507 114.676 28.5004 114.972 27.6514V17.9373H116.986V30.9388C116.986 31.2153 117.046 31.4226 117.164 31.5608C117.282 31.6793 117.46 31.7484 117.697 31.7681V33.3674C117.46 33.3871 117.273 33.397 117.134 33.397C116.996 33.4167 116.868 33.4266 116.749 33.4266C116.354 33.3871 116.009 33.2292 115.713 32.9527C115.436 32.6763 115.288 32.3407 115.269 31.9458L115.209 29.8727C114.538 31.0573 113.62 31.9853 112.455 32.6566C111.31 33.3279 110.066 33.6635 108.723 33.6635C107.104 33.6635 105.88 33.1008 105.051 31.9754C104.222 30.85 103.807 29.1915 103.807 26.9999Z" fill="black"/>
</g>
<defs>
<clipPath id="clip0_1681_6">
<rect width="262" height="41" fill="white"/>
</clipPath>
</defs>
</svg>
