<svg width="20" height="20" viewBox="0 0 20 20" fill="none" xmlns="http://www.w3.org/2000/svg">
<path d="M17.5 17.5V5.625L11.875 0H5C4.33696 0 3.70107 0.263392 3.23223 0.732233C2.76339 1.20107 2.5 1.83696 2.5 2.5V17.5C2.5 18.163 2.76339 18.7989 3.23223 19.2678C3.70107 19.7366 4.33696 20 5 20H15C15.663 20 16.2989 19.7366 16.7678 19.2678C17.2366 18.7989 17.5 18.163 17.5 17.5ZM11.875 3.75C11.875 4.24728 12.0725 4.72419 12.4242 5.07583C12.7758 5.42746 13.2527 5.625 13.75 5.625H16.25V17.5C16.25 17.8315 16.1183 18.1495 15.8839 18.3839C15.6495 18.6183 15.3315 18.75 15 18.75H5C4.66848 18.75 4.35054 18.6183 4.11612 18.3839C3.8817 18.1495 3.75 17.8315 3.75 17.5V2.5C3.75 2.16848 3.8817 1.85054 4.11612 1.61612C4.35054 1.3817 4.66848 1.25 5 1.25H11.875V3.75Z" fill="white"/>
<path d="M5.75388 17.6088C5.51024 17.5113 5.31395 17.3231 5.20637 17.0838C4.96262 16.5988 5.04387 16.1138 5.30637 15.7063C5.55387 15.3225 5.96388 14.9963 6.42763 14.7225C7.01505 14.3893 7.63599 14.1191 8.28012 13.9163C8.78036 13.017 9.22373 12.0873 9.60762 11.1325C9.3781 10.611 9.19814 10.069 9.07012 9.51376C8.96262 9.01376 8.92137 8.51876 9.01262 8.09376C9.10637 7.65126 9.35512 7.25376 9.82512 7.06501C10.0651 6.96876 10.3251 6.91501 10.5776 6.96876C10.7046 6.9958 10.824 7.05077 10.9272 7.12968C11.0303 7.2086 11.1146 7.30948 11.1739 7.42501C11.2839 7.63001 11.3239 7.87001 11.3326 8.09751C11.3414 8.33251 11.3176 8.59251 11.2739 8.86501C11.1689 9.50251 10.9364 10.2825 10.6239 11.1075C10.9687 11.845 11.3787 12.5503 11.8489 13.215C12.4052 13.1711 12.9648 13.192 13.5164 13.2775C13.9714 13.36 14.4339 13.5213 14.7164 13.8588C14.8664 14.0388 14.9576 14.2588 14.9664 14.5063C14.9751 14.7463 14.9076 14.9838 14.7939 15.21C14.6953 15.4197 14.5426 15.5992 14.3514 15.73C14.1624 15.8533 13.9392 15.9137 13.7139 15.9025C13.3001 15.885 12.8964 15.6575 12.5476 15.3813C12.1236 15.0306 11.7414 14.6321 11.4089 14.1938C10.5636 14.2897 9.72829 14.4595 8.91262 14.7013C8.5391 15.3637 8.11271 15.9949 7.63762 16.5888C7.27263 17.0263 6.87637 17.4088 6.47888 17.5725C6.25049 17.6758 5.99143 17.6888 5.75388 17.6088ZM7.47762 15.2325C7.27012 15.3275 7.07762 15.4275 6.90387 15.53C6.49387 15.7725 6.22762 16.0088 6.09512 16.2138C5.97762 16.395 5.97512 16.5263 6.04512 16.665C6.05762 16.6925 6.07012 16.71 6.07762 16.72C6.09254 16.716 6.10716 16.711 6.12137 16.705C6.29262 16.635 6.56512 16.4113 6.91512 15.99C7.11418 15.7463 7.30188 15.4935 7.47762 15.2325ZM9.52762 13.57C9.94503 13.4726 10.3662 13.3921 10.7901 13.3288C10.5625 12.9805 10.3498 12.6226 10.1526 12.2563C9.95656 12.6995 9.74815 13.1372 9.52762 13.5688V13.57ZM12.5851 14.1325C12.7726 14.3363 12.9551 14.5075 13.1289 14.645C13.4289 14.8825 13.6376 14.9613 13.7514 14.965C13.7818 14.969 13.8127 14.9624 13.8389 14.9463C13.8909 14.9052 13.9314 14.8514 13.9564 14.79C14.0008 14.7139 14.0261 14.6281 14.0301 14.54C14.0294 14.5106 14.0178 14.4826 13.9976 14.4613C13.9326 14.3838 13.7476 14.2713 13.3501 14.2C13.0973 14.1577 12.8415 14.1356 12.5851 14.1338V14.1325ZM10.0976 9.75001C10.2028 9.41066 10.2863 9.06496 10.3476 8.71501C10.3864 8.48001 10.4014 8.28626 10.3951 8.13376C10.3955 8.04962 10.382 7.966 10.3551 7.88626C10.2926 7.894 10.2315 7.91084 10.1739 7.93626C10.0651 7.98001 9.97637 8.06876 9.92887 8.29001C9.87887 8.53001 9.89137 8.87626 9.98637 9.31751C10.0164 9.45626 10.0539 9.60126 10.0989 9.75001H10.0976Z" fill="white"/>
</svg>
